<svg xmlns="http://www.w3.org/2000/svg" viewBox="0 0 651 153" width="651" height="153">
	<style>
		tspan { white-space:pre }
		.shp0 { fill: #00a1e4 } 
	</style>
	<path id="Path 1" fill-rule="evenodd" class="shp0" d="M57.88 80.4L36.17 138.22L21.64 138.22L0 80.4L14.5 80.4L28.9 119.71L43.31 80.4L57.88 80.4ZM79.34 73.39L64.88 73.39L64.88 58.76L79.34 58.76L79.34 73.39ZM79.34 138.22L64.88 138.22L64.88 80.29L79.34 80.29L79.34 138.22ZM194.91 138.3L181.21 138.3C180.77 136.49 180.33 134.99 179.84 132.77C176.42 136.49 170.98 138.34 163.51 138.34C158.35 138.34 154.08 137.16 150.75 134.8C146.84 132.04 144.89 128.03 144.89 122.76C144.89 115.22 147.85 110.02 153.81 107.19C156.54 105.87 162.11 104.69 170.53 103.66C176.47 102.89 179.46 101.31 179.46 98.88C179.46 96.73 178.55 95.02 176.77 93.74C174.98 92.46 172.9 91.81 170.51 91.81C168.05 91.81 165.96 92.47 164.21 93.8C162.24 95.23 161.12 97.28 160.85 99.91L146.78 99.91C147.11 95.43 148.18 91.79 149.95 89.04C151.74 86.28 154.62 84.14 158.6 82.62C162.3 81.23 166.47 80.54 171.16 80.54C186.99 80.68 194.91 88.19 194.91 103.08L194.91 138.3ZM179.24 110.21C177.78 111.39 175.22 112.33 171.54 113.02C167.36 113.8 164.66 114.53 163.41 115.22C160.85 116.53 159.55 118.82 159.55 122.07C159.55 126.24 161.75 128.31 166.12 128.31C168.13 128.31 170.21 127.86 172.38 126.91C174.52 125.97 176.15 124.85 177.26 123.53C178.72 121.73 179.46 119.06 179.46 115.53C179.46 114.89 179.41 114 179.34 112.81C179.28 111.64 179.24 110.76 179.24 110.21ZM260.26 110C260.26 117.75 258.36 124.19 254.54 129.28C250.13 135.13 243.82 138.08 235.64 138.16L235.53 138.16C228.19 138.16 222.39 135.32 217.04 129.61L217.04 152.83L202.44 152.83L202.44 80.64L216.86 80.64C216.86 80.64 216.78 89.05 216.86 89.13C216.86 89.13 224.39 80.7 234.4 80.7C239.39 80.7 244.05 82.06 248.33 84.77C252.63 87.51 255.69 90.95 257.52 95.14C259.35 99.31 260.26 104.27 260.26 110ZM244.09 110C244.09 98.9 239.55 93.32 230.51 93.32C221.68 93.32 217.26 99.16 217.26 110.8C217.26 115.68 218.66 119.57 221.42 122.49C223.97 125.14 227.02 126.45 230.63 126.45C234.28 126.45 237.35 125.09 239.8 122.39C242.67 119.34 244.09 115.21 244.09 110ZM318.09 138.36L303.24 138.36L303.24 102.79C303.24 98.97 302.62 96.27 301.4 94.68C299.93 92.83 297.35 91.92 293.66 91.92C290.05 91.92 287.23 93.11 285.26 95.5C283.28 97.9 282.28 100.91 282.28 104.53L282.28 138.36L267.45 138.36L267.45 58.72L282.28 58.72L282.28 88.47C283.41 86.07 285.49 84.13 288.55 82.7C291.63 81.23 295.02 80.51 298.72 80.51C304.02 80.51 308.45 81.88 312.01 84.61C316.06 87.74 318.09 92.23 318.09 98.02L318.09 138.36ZM441.15 138.36L426.31 138.36L426.31 102.79C426.31 98.97 425.69 96.27 424.46 94.68C422.99 92.83 420.42 91.92 416.72 91.92C413.11 91.92 410.3 93.11 408.32 95.5C406.35 97.9 405.35 100.91 405.35 104.53L405.35 138.36L390.52 138.36L390.52 80.41L405.35 80.41L405.35 88.47C406.47 86.07 408.56 84.13 411.63 82.7C414.7 81.23 418.08 80.51 421.79 80.51C427.09 80.51 431.51 81.88 435.08 84.61C439.13 87.74 441.15 92.23 441.15 98.02L441.15 138.36ZM137.21 138.36L122.37 138.36L122.37 102.79C122.37 98.97 121.75 96.27 120.52 94.68C119.05 92.83 116.47 91.92 112.78 91.92C109.17 91.92 106.35 93.11 104.38 95.5C102.41 97.9 101.4 100.91 101.4 104.53L101.4 138.36L86.57 138.36L86.57 80.41L101.4 80.41L101.4 88.47C102.53 86.07 104.62 84.13 107.68 82.7C110.76 81.23 114.14 80.51 117.85 80.51C123.14 80.51 127.57 81.88 131.13 84.61C135.19 87.74 137.21 92.23 137.21 98.02L137.21 138.36ZM499.36 113.11L462.27 113.11C462.6 117.62 464.03 121.1 466.53 123.57C468.68 125.61 471.3 126.62 474.39 126.62C476.67 126.62 478.74 126.09 480.55 124.99C482.37 123.89 483.56 122.42 484.1 120.56L498.63 120.56C497.03 126.15 494.13 130.46 489.94 133.52C485.78 136.57 480.82 138.11 475.08 138.11C457.1 138.11 448.12 128.13 448.12 108.15C448.12 99.73 450.4 92.99 454.93 87.93C459.49 82.89 465.86 80.36 474.09 80.36C490.93 80.36 499.36 91.3 499.36 113.11ZM484.81 103.95C484.45 100.26 483.23 97.34 481.11 95.2C478.99 93.09 476.54 92.01 473.78 92.01C471.09 92.01 468.76 93.02 466.82 95C464.65 97.12 463.31 100.12 462.77 103.95L484.81 103.95Z" />
	<path id="Path 2" fill-rule="evenodd" class="shp0" d="M383.12 109.32C383.12 118.13 380.55 125.18 375.39 130.48C370.23 135.79 363.25 138.43 354.43 138.43C345.47 138.43 338.38 135.75 333.21 130.37C328.01 125.01 325.43 117.99 325.43 109.32C325.43 100.61 327.99 93.55 333.14 88.18C338.29 82.8 345.39 80.12 354.43 80.12C363.47 80.12 370.55 82.86 375.71 88.33C380.65 93.67 383.12 100.66 383.12 109.32ZM367.97 109.28C367.97 97.98 363.45 92.36 354.4 92.36C345.29 92.36 340.72 97.98 340.72 109.28C340.72 120.56 345.29 126.21 354.4 126.21C363.45 126.21 367.97 120.56 367.97 109.28ZM645.02 48.73C642.49 51.94 639.22 54.47 635.47 56.04C631.7 57.6 627.65 57.44 623.66 57.6C597.34 58.7 589.96 74.28 586.23 95.25C585.59 98.84 583.95 102.38 581.73 105.25C579.25 108.39 575.86 110.72 572.05 111.85C567.76 113.13 563.17 112.65 558.78 113.32C554.66 113.96 550.36 115.26 547.56 118.58C544.58 122.12 544.21 128.41 545.07 132.79C546.03 137.55 544.98 142.69 541.8 146.73C539.88 149.21 537.4 150.91 534.72 151.88C533.06 152.5 531.27 152.86 529.39 152.86C520.6 152.86 513.48 145.46 513.48 136.32C513.48 134.83 513.68 133.39 514.04 132.01C514.59 129.7 515.61 127.48 517.14 125.53C518.23 124.14 519.54 122.91 521.03 121.96C526.42 118.49 533.44 119.99 538.68 116.16C541.83 113.84 543.68 109.67 544.64 105.56C545.27 103.73 545.61 101.63 545.61 99.25C545.61 94.83 544.6 89.91 543.05 85.81C536.76 69.26 517.07 60.79 500.8 58.6C496.16 57.98 491.41 58.11 486.78 57.85L486.77 57.85C484.87 57.85 483.01 57.65 481.23 57.26C477.01 56.55 473 55.1 469.36 51.97C458.25 42.4 456.09 25.63 464.05 13.46C464.07 13.44 464.09 13.42 464.11 13.39C464.32 13.06 464.54 12.74 464.77 12.43C464.91 12.23 465.05 12.04 465.19 11.85C465.29 11.71 465.38 11.58 465.5 11.45C465.52 11.43 465.53 11.4 465.55 11.38C470.56 4.98 478.22 0.9 486.77 0.9C488.54 0.9 490.2 1.11 491.83 1.47C496.22 2.34 500.49 4.35 504.19 7.53C510.35 12.82 512.16 19.81 514.58 27.29C519.17 41.49 528.57 58.26 540.72 67.06C547.18 71.75 555 74.29 562.96 74.29C579.32 74.29 593.03 64.85 599.13 49.86C600.55 46.41 601.58 42.81 602.23 39.13C602.94 35.18 602.66 31.13 603.52 27.17C604.32 23.5 605.84 19.97 608.15 17.02C612.85 11.04 619.67 7.96 626.54 7.96C626.61 7.96 626.65 7.96 626.72 7.96C639.34 7.96 649.66 17.98 650.29 30.58C650.87 36.89 649.15 43.44 645.02 48.73Z" />
</svg>